/* XPM */
static char * background_xpm[] = {
"24 24 4 1",
" 	c None",
".	c #808080",
"+	c #000000",
"@	c #FFFFFF",
"                        ",
"                        ",
"                        ",
"                        ",
"                        ",
"     ..........         ",
"     .++++++++.         ",
"     .++++++++.         ",
"     .++++++++.         ",
"     .++++++++.....     ",
"     .++++++++.@@@.     ",
"     .++++++++.@@@.     ",
"     .++++++++.@@@.     ",
"     .++++++++.@@@.     ",
"     ..........@@@.     ",
"         .@@@@@@@@.     ",
"         .@@@@@@@@.     ",
"         .@@@@@@@@.     ",
"         ..........     ",
"                        ",
"                        ",
"                        ",
"                        ",
"                        "};
