/* XPM */
static char * quit_xpm[] = {
"24 24 6 1",
" 	c None",
".	c #000000",
"+	c #C00000",
"@	c #FF0000",
"#	c #2F0000",
"$	c #C10000",
"                        ",
"          ....          ",
"         .++++.         ",
"         .+@@+.         ",
"         .+@@+.         ",
"         .+@@+.         ",
"         .+@@+.         ",
"         .+@@+.         ",
"         .+@@+.         ",
"         .+@@+.         ",
"         .+@@+.         ",
"         .+@@+.         ",
"         .+@@+.         ",
"         .+@@+.         ",
"         .+@@+.         ",
"      ....+@@+###.      ",
"     .+++++@@+$+++.     ",
"     .+@@@@@@@@@@+.     ",
"      .+@@@@@@@@+.      ",
"       .+@@@@@@+.       ",
"        .+@@@@+.        ",
"         .+@@+.         ",
"          .++.          ",
"           ..           "};
