/* XPM */
static char * reload_xpm[] = {
"24 24 4 1",
" 	c None",
".	c #000000",
"+	c #00C000",
"@	c #00FF00",
"                        ",
"                        ",
"       .........        ",
"     ..++@@@@@++..      ",
"    .+@@@@@@@@@@@+.     ",
"   .+@@@+++++++@@@+.    ",
"  .+@@@+.......+@@@+.   ",
"  .@@@..       ..@@@.   ",
" .+@@+.         .+@+.   ",
" .+@+.           ....   ",
" .@@+.             .    ",
" .@@+.            .+.   ",
" .@@+.           .+@+.  ",
" .@@+.          .+@@@+. ",
" .@@+.         .+@@@@@+.",
" .+@+.         ...@@+...",
" .+@@+.         .+@@+.  ",
"  .@@@..       ..@@@.   ",
"  .+@@@+.......+@@@+.   ",
"   .+@@@+++++++@@@+.    ",
"    .+@@@@@@@@@@@+.     ",
"     ..++@@@@@++..      ",
"       .........        ",
"                        "};
